<svg width="24" height="24" viewBox="0 0 24 24" fill="none" xmlns="http://www.w3.org/2000/svg">
    <path
        d="M7 12C7 12.5523 7.44772 13 8 13H16C16.5523 13 17 12.5523 17 12C17 11.4478 16.5523 11 16 11H8C7.44772 11 7 11.4478 7 12ZM12 22C10.6167 22 9.31667 21.7375 8.1 21.2125C6.88333 20.6875 5.825 19.975 4.925 19.075C4.025 18.175 3.3125 17.1167 2.7875 15.9C2.2625 14.6834 2 13.3834 2 12C2 10.6167 2.2625 9.31671 2.7875 8.10005C3.3125 6.88338 4.025 5.82505 4.925 4.92505C5.825 4.02505 6.88333 3.31255 8.1 2.78755C9.31667 2.26255 10.6167 2.00005 12 2.00005C13.3833 2.00005 14.6833 2.26255 15.9 2.78755C17.1167 3.31255 18.175 4.02505 19.075 4.92505C19.975 5.82505 20.6875 6.88338 21.2125 8.10005C21.7375 9.31671 22 10.6167 22 12C22 13.3834 21.7375 14.6834 21.2125 15.9C20.6875 17.1167 19.975 18.175 19.075 19.075C18.175 19.975 17.1167 20.6875 15.9 21.2125C14.6833 21.7375 13.3833 22 12 22ZM12 20C14.2333 20 16.125 19.225 17.675 17.675C19.225 16.125 20 14.2334 20 12C20 9.76671 19.225 7.87505 17.675 6.32505C16.125 4.77505 14.2333 4.00005 12 4.00005C9.76667 4.00005 7.875 4.77505 6.325 6.32505C4.775 7.87505 4 9.76671 4 12C4 14.2334 4.775 16.125 6.325 17.675C7.875 19.225 9.76667 20 12 20Z"
        fill="#FFB59B" />
</svg>
