<svg xmlns="http://www.w3.org/2000/svg" height="24" viewBox="0 -960 960 960" width="24">
    <path
        d="M200-120q-33 0-56.5-23.5T120-200q0-33 23.5-56.5T200-280q33 0 56.5 23.5T280-200q0 33-23.5 56.5T200-120Zm539 0q-24 0-41.5-17T677-179q-10-98-52.5-184t-109-152.5Q449-582 363-624.5T179-677q-25-3-42-21t-17-43q0-25 17.5-41.5T179-797q123 10 231 62t190.5 134.5Q683-518 735-410t62 231q2 24-15 41.5T739-120Zm-240 0q-23 0-41.5-16.5T434-179q-18-97-88-167t-167-88q-26-5-42.5-24T120-501q0-26 18-42t41-13q148 20 252.5 124.5T556-179q3 23-14 41t-43 18Z" />
</svg>
