<svg width="432" height="432" viewBox="0 0 432 432" fill="none" xmlns="http://www.w3.org/2000/svg">
<rect width="432" height="432" fill="#212121"/>
<rect opacity="0.4" width="432" height="432" fill="url(#paint0_radial_10895_1611)"/>
<path d="M119.486 342C110.552 342 102.905 338.819 96.5428 332.457C90.1809 326.095 87 318.448 87 309.514C87 300.58 90.1809 292.933 96.5428 286.571C102.905 280.209 110.552 277.028 119.486 277.028C128.42 277.028 136.068 280.209 142.43 286.571C148.791 292.933 151.972 300.58 151.972 309.514C151.972 318.448 148.791 326.095 142.43 332.457C136.068 338.819 128.42 342 119.486 342ZM338.362 342C331.865 342 326.247 339.699 321.51 335.097C316.772 330.495 313.997 324.81 313.185 318.042C310.478 291.511 303.372 266.606 291.866 243.324C280.361 220.042 265.606 199.4 247.604 181.398C229.601 163.395 208.959 148.641 185.677 137.136C162.395 125.63 137.489 118.524 110.959 115.817C104.191 115.005 98.5055 112.162 93.9033 107.289C89.3011 102.416 87 96.5959 87 89.828C87 83.0601 89.3688 77.4427 94.1064 72.9759C98.8439 68.5091 104.461 66.5464 110.959 67.0878C144.257 69.795 175.525 78.1872 204.762 92.2644C234 106.342 259.786 124.547 282.12 146.881C304.455 169.215 322.66 195.001 336.738 224.239C350.815 253.476 359.207 284.744 361.915 318.042C362.456 324.539 360.426 330.156 355.823 334.894C351.221 339.631 345.401 342 338.362 342ZM240.903 342C234.677 342 229.059 339.767 224.051 335.3C219.043 330.833 215.862 325.08 214.508 318.042C209.635 291.782 197.724 269.177 178.774 250.227C159.823 231.277 137.218 219.366 110.959 214.493C103.92 213.139 98.1671 209.891 93.7003 204.747C89.2334 199.603 87 193.783 87 187.286C87 180.247 89.4365 174.562 94.3094 170.231C99.1823 165.899 104.732 164.14 110.959 164.952C151.025 170.366 185.203 187.218 213.493 215.508C241.783 243.798 258.635 277.976 264.05 318.042C264.862 324.268 262.967 329.818 258.365 334.691C253.763 339.564 247.942 342 240.903 342Z" fill="#63DBB5"/>
<defs>
<radialGradient id="paint0_radial_10895_1611" cx="0" cy="0" r="1" gradientUnits="userSpaceOnUse" gradientTransform="translate(72 72) rotate(45) scale(407.294)">
<stop stop-color="white"/>
<stop offset="0.375081" stop-color="white" stop-opacity="0.5"/>
<stop offset="1" stop-color="white" stop-opacity="0"/>
</radialGradient>
</defs>
</svg>
